<svg width="240" height="240" viewBox="0 0 240 240" fill="none" xmlns="http://www.w3.org/2000/svg">
<g clip-path="url(#clip0_65_678)">
<rect width="240" height="240" fill="url(#paint0_linear_65_678)"/>
<path d="M53.1318 112.747C52.5537 112.402 52.0379 111.966 51.625 111.391C52.048 111.856 52.5762 112.332 53.1318 112.747Z" fill="white"/>
<path d="M189.613 137.076H50.7469C49.699 133.254 48.948 129.313 48.543 125.266H191.814C191.412 129.313 190.659 133.254 189.613 137.076Z" fill="white"/>
<path d="M151.672 182.792H88.7045C83.4131 180.212 78.4898 177.006 74.0205 173.267H152.759C156.425 173.267 159.425 170.268 159.425 166.601C159.425 162.935 156.425 159.935 152.759 159.935H61.6583C59.01 156.243 56.7054 152.292 54.7812 148.125H185.593C178.63 163.232 166.604 175.517 151.672 182.792Z" fill="white"/>
<path d="M97.5625 56.7148H157.916C163.264 60.0109 168.139 63.9918 172.438 68.5249H106.072C104.233 63.9133 101.295 59.8638 97.5625 56.7148Z" fill="white"/>
<path d="M60.5225 103.561C65.495 107.254 71.6356 109.466 78.3088 109.466C84.9796 109.466 91.1201 107.254 96.0926 103.561H172.212C175.88 103.561 178.878 100.559 178.878 96.8947C178.878 93.2281 175.88 90.2264 172.212 90.2264H106.219C107.488 86.9107 108.214 83.3249 108.214 79.5625H181.055C187.476 89.689 191.447 101.516 192.11 114.227H48.3125C48.5063 110.595 48.9604 107.031 49.6697 103.561H60.5225Z" fill="white"/>
</g>
<defs>
<linearGradient id="paint0_linear_65_678" x1="240.48" y1="7.1812e-06" x2="-7.1812e-06" y2="240.48" gradientUnits="userSpaceOnUse">
<stop stop-color="#5A06A5"/>
<stop offset="1" stop-color="#3B95E3"/>
</linearGradient>
<clipPath id="clip0_65_678">
<rect width="240" height="240" fill="white"/>
</clipPath>
</defs>
</svg>
